<svg xmlns="http://www.w3.org/2000/svg" width="1100" height="1280" viewBox="0 0 1100 1280" role="img" aria-labelledby="title desc">
  <title id="title">Page-level hybrid retrieval</title>
  <desc id="desc">A monochrome figure showing BM25 page ranking, dense FAISS page ranking, weighted reciprocal rank fusion, final page selection, and optional follow-on reranking.</desc>

  <defs>
    <marker id="arrow" markerWidth="12" markerHeight="12" refX="10" refY="6" orient="auto" markerUnits="strokeWidth">
      <path d="M0,0 L12,6 L0,12 z" fill="#111"/>
    </marker>
    <style>
      .bg { fill: #fff; }
      .frame { fill: #fff; stroke: #111; stroke-width: 2.2; }
      .subframe { fill: #fafafa; stroke: #444; stroke-width: 1.6; stroke-dasharray: 7 5; }
      .box { fill: #f2f2f2; stroke: #111; stroke-width: 1.6; rx: 7; ry: 7; }
      .title { font: 700 28px Georgia, "Times New Roman", serif; fill: #111; }
      .formula { font: italic 27px Georgia, "Times New Roman", serif; fill: #111; }
      .panelhead { font: 700 22px Georgia, "Times New Roman", serif; fill: #111; }
      .panelsub { font: 400 16px Georgia, "Times New Roman", serif; fill: #333; }
      .label { font: 700 18px Arial, Helvetica, sans-serif; fill: #111; }
      .mono { font: 700 22px "Courier New", Courier, monospace; fill: #111; }
      .score { font: 400 20px "Courier New", Courier, monospace; fill: #111; }
      .note { font: 400 18px Georgia, "Times New Roman", serif; fill: #222; }
      .small { font: 400 15px Arial, Helvetica, sans-serif; fill: #444; }
      .arrow { stroke: #111; stroke-width: 3; fill: none; marker-end: url(#arrow); }
    </style>
  </defs>

  <rect class="bg" x="0" y="0" width="1100" height="1280"/>

  <text class="title" x="550" y="52" text-anchor="middle">Page-Level Hybrid Retrieval</text>
  <text class="formula" x="550" y="94" text-anchor="middle">RRFscore(p) = 0.5 / (20 + r_dense(p)) + 2.0 / (20 + r_bm25(p))</text>

  <rect class="frame" x="80" y="140" width="940" height="330" rx="14" ry="14"/>
  <text class="panelhead" x="550" y="178" text-anchor="middle">Page Candidates</text>
  <text class="label" x="300" y="216" text-anchor="middle">BM25</text>
  <text class="label" x="800" y="216" text-anchor="middle">Dense FAISS</text>
  <text class="small" x="300" y="238" text-anchor="middle">lexical page rank</text>
  <text class="small" x="800" y="238" text-anchor="middle">MiniLM page rank</text>

  <rect class="box" x="190" y="268" width="220" height="42"/>
  <text class="mono" x="300" y="296" text-anchor="middle">page 28</text>
  <rect class="box" x="190" y="320" width="220" height="42"/>
  <text class="mono" x="300" y="348" text-anchor="middle">page 31</text>
  <rect class="box" x="190" y="372" width="220" height="42"/>
  <text class="mono" x="300" y="400" text-anchor="middle">page 29</text>
  <rect class="box" x="190" y="424" width="220" height="42"/>
  <text class="mono" x="300" y="452" text-anchor="middle">page 44</text>

  <rect class="box" x="690" y="268" width="220" height="42"/>
  <text class="mono" x="800" y="296" text-anchor="middle">page 44</text>
  <rect class="box" x="690" y="320" width="220" height="42"/>
  <text class="mono" x="800" y="348" text-anchor="middle">page 28</text>
  <rect class="box" x="690" y="372" width="220" height="42"/>
  <text class="mono" x="800" y="400" text-anchor="middle">page 29</text>
  <rect class="box" x="690" y="424" width="220" height="42"/>
  <text class="mono" x="800" y="452" text-anchor="middle">page 31</text>

  <path class="arrow" d="M 550 490 L 550 560"/>

  <rect class="frame" x="120" y="580" width="860" height="360" rx="14" ry="14"/>
  <text class="panelhead" x="550" y="620" text-anchor="middle">Weighted Reciprocal Rank Fusion</text>
  <text class="panelsub" x="550" y="652" text-anchor="middle">Default settings in code: k = 20, dense = 0.5, BM25 = 2.0</text>

  <rect class="box" x="160" y="714" width="190" height="44"/>
  <text class="mono" x="255" y="743" text-anchor="middle">page 28</text>
  <text class="score" x="390" y="743">0.5/22 + 2.0/21 = 0.1179</text>

  <rect class="box" x="160" y="772" width="190" height="44"/>
  <text class="mono" x="255" y="801" text-anchor="middle">page 31</text>
  <text class="score" x="390" y="801">0.5/24 + 2.0/22 = 0.1117</text>

  <rect class="box" x="160" y="830" width="190" height="44"/>
  <text class="mono" x="255" y="859" text-anchor="middle">page 29</text>
  <text class="score" x="390" y="859">0.5/23 + 2.0/23 = 0.1087</text>

  <rect class="box" x="160" y="888" width="190" height="44"/>
  <text class="mono" x="255" y="917" text-anchor="middle">page 44</text>
  <text class="score" x="390" y="917">0.5/21 + 2.0/24 = 0.1071</text>

  <path class="arrow" d="M 550 958 L 550 1016"/>

  <rect class="frame" x="290" y="1034" width="520" height="176" rx="14" ry="14"/>
  <text class="panelhead" x="550" y="1072" text-anchor="middle">Final Page Rank</text>
  <text class="small" x="550" y="1098" text-anchor="middle">top pages passed forward</text>

  <rect class="box" x="365" y="1120" width="370" height="32"/>
  <text class="mono" x="550" y="1143" text-anchor="middle">page 28</text>
  <rect class="box" x="365" y="1158" width="370" height="32"/>
  <text class="mono" x="550" y="1181" text-anchor="middle">page 31</text>

  <text class="note" x="550" y="1238" text-anchor="middle">Dense retrieval uses FAISS IndexFlatIP over L2-normalized MiniLM embeddings.</text>
  <text class="note" x="550" y="1264" text-anchor="middle">BM25 is weighted more strongly than dense retrieval in the tuned default hybrid setting.</text>
</svg>
